<?xml version="1.0" encoding="UTF-8"?>
<svg version="1.1" xmlns="http://www.w3.org/2000/svg" width="512" height="512">
<path d="M0 0 C0.94476196 0.00054382 1.88952393 0.00108765 2.86291504 0.00164795 C52.79553042 0.13337681 101.55369639 15.66293204 141.25 46.375 C142.06339844 46.99632812 142.87679688 47.61765625 143.71484375 48.2578125 C158.61778046 59.8882244 172.75645347 73.35075618 184.25 88.375 C184.71986328 88.97957031 185.18972656 89.58414063 185.67382812 90.20703125 C223.05218012 138.61271314 239.21333221 200.69386239 232.125 261.3125 C226.52633669 304.46784687 209.14069978 345.90616027 181.25 379.375 C180.24193549 380.70224667 179.23938299 382.03376957 178.25 383.375 C179.52550406 386.17124621 180.84038067 388.21220715 183.02062988 390.37268066 C183.58423721 390.936147 184.14784454 391.49961334 184.72853088 392.08015442 C185.34469772 392.68598862 185.96086456 393.29182281 186.59570312 393.91601562 C187.24627182 394.56366379 187.89684052 395.21131195 188.56712341 395.87858582 C189.97868879 397.282547 191.39255978 398.68419303 192.80845642 400.08378601 C195.04862148 402.29842353 197.28247866 404.51924983 199.51477051 406.74182129 C204.25429476 411.45848648 209.00158207 416.16729067 213.75 420.875 C219.25224522 426.330074 224.75127533 431.78830661 230.2419281 437.25505066 C232.44374096 439.44388834 234.65148799 441.62661962 236.85949707 443.8092041 C238.20805871 445.15050095 239.5563405 446.49207925 240.90429688 447.83398438 C241.52046371 448.43981857 242.13663055 449.04565277 242.77146912 449.66984558 C243.33507645 450.23331192 243.89868378 450.79677826 244.47937012 451.37731934 C244.96900993 451.86251793 245.45864975 452.34771652 245.96312714 452.8476181 C249.76621556 457.36148157 249.67339136 461.76389388 249.5625 467.4609375 C248.99397844 472.76240101 246.47134216 475.21472495 242.75 478.75 C237.69221514 481.09825726 232.73314207 481.34597307 227.25 480.375 C222.28893304 477.4628679 218.44661195 473.8465439 214.41845703 469.77050781 C213.76409164 469.11643448 213.10972626 468.46236115 212.43553162 467.78846741 C210.2881798 465.63972969 208.1479866 463.48400989 206.0078125 461.328125 C204.51466898 459.83124873 203.02108134 458.33481536 201.52706909 456.83880615 C197.60672125 452.91084253 193.69241831 448.97690868 189.77935791 445.04168701 C185.78102878 441.02285519 181.7769925 437.00971839 177.7734375 432.99609375 C169.9267061 425.12794869 162.08635109 417.25348253 154.25 409.375 C150.68033931 410.73306291 148.2534317 412.0053782 145.46875 414.6328125 C141.46423209 418.25675123 137.26079112 421.29096088 132.75 424.25 C131.96955322 424.7646582 131.18910645 425.27931641 130.38500977 425.80957031 C111.50983171 438.11921988 91.71493692 447.52549517 70.25 454.375 C69.1350415 454.73271484 69.1350415 454.73271484 67.99755859 455.09765625 C12.51905884 472.54764494 -52.30547802 466.8467472 -103.98876953 440.22167969 C-134.52568266 424.09162991 -162.97586434 401.87517782 -183.58886719 373.94628906 C-184.67143281 372.4813201 -185.77630542 371.03290829 -186.8828125 369.5859375 C-192.43948992 362.19882517 -197.17347094 354.39224859 -201.75 346.375 C-202.1227002 345.72821289 -202.49540039 345.08142578 -202.87939453 344.41503906 C-219.95875067 314.49835532 -230.66561346 278.58428146 -230.98828125 244.00390625 C-230.99802979 243.1322583 -231.00777832 242.26061035 -231.01782227 241.36254883 C-231.18980642 221.99713268 -230.93399829 203.37362845 -226.75 184.375 C-226.56276367 183.4895752 -226.37552734 182.60415039 -226.18261719 181.69189453 C-224.92482214 175.85151112 -223.44200238 170.10422617 -221.75 164.375 C-221.40509521 163.20638428 -221.40509521 163.20638428 -221.05322266 162.01416016 C-211.36811081 130.1916498 -194.27651366 100.99002186 -171.78125 76.59375 C-169.96041875 74.60484201 -168.22912594 72.56817024 -166.5 70.5 C-133.76544946 33.20652803 -83.98152108 10.28414526 -35.75 2.375 C-34.65848633 2.19098633 -33.56697266 2.00697266 -32.44238281 1.81738281 C-21.62439352 0.17046504 -10.92436505 -0.02371217 0 0 Z M-133.42578125 85.296875 C-135.02217802 86.72424152 -136.66685994 88.0988368 -138.34765625 89.42578125 C-141.95936447 92.3562567 -144.7490655 95.83717515 -147.75 99.375 C-148.58917969 100.32632813 -149.42835938 101.27765625 -150.29296875 102.2578125 C-178.20481803 134.11285937 -197.70175816 178.24280944 -197.953125 220.984375 C-197.96018463 221.78474182 -197.96724426 222.58510864 -197.97451782 223.409729 C-198.25755044 247.55834533 -198.25755044 247.55834533 -194.75 271.375 C-194.55132324 272.26960937 -194.35264648 273.16421875 -194.14794922 274.0859375 C-185.60493073 311.86719678 -167.35851246 344.4500244 -140.75 372.375 C-140.02425781 373.15359375 -139.29851562 373.9321875 -138.55078125 374.734375 C-105.35224643 409.34430778 -54.88116943 430.4694302 -7.23828125 431.578125 C39.33998367 432.09015212 83.97577542 420.16710015 121.25 391.375 C122.17683594 390.65957031 123.10367187 389.94414062 124.05859375 389.20703125 C129.39699896 384.95335279 134.47618759 380.42942622 139.5 375.8125 C140.06654297 375.29453857 140.63308594 374.77657715 141.21679688 374.24291992 C173.61143965 344.06430508 193.74900704 299.88331217 199.25 256.375 C199.3442627 255.63080811 199.43852539 254.88661621 199.53564453 254.11987305 C204.93302275 206.56211557 192.64788401 156.13949022 164.25 117.375 C163.49332031 116.33472656 162.73664063 115.29445313 161.95703125 114.22265625 C156.33074216 106.63486702 150.16070237 99.63912323 143.63134766 92.81933594 C142.40491961 91.53698382 141.19170513 90.24202339 139.98046875 88.9453125 C105.69158143 53.19326301 54.19505429 33.56122712 5.25 32.40625 C-46.34939178 31.84884916 -95.47577512 50.42050573 -133.42578125 85.296875 Z " fill="#000000" transform="translate(246.75,15.625)"/>
<path d="M0 0 C2.38776126 0.00850515 4.7731185 -0.02032217 7.16064453 -0.05200195 C22.93145286 -0.12564132 34.54987257 3.88108636 46.27392578 14.75854492 C53.95046829 22.86960871 58.66404041 32.8565062 58.71142578 44.07104492 C58.66429174 45.52995573 58.60764126 46.98877553 58.52392578 48.44604492 C59.68408203 48.39963867 60.84423828 48.35323242 62.03955078 48.30541992 C78.46395333 47.84194161 90.0107255 51.38087114 102.27392578 62.75854492 C111.32795777 72.32506928 114.9943075 83.60034689 114.92797852 96.57055664 C114.93484177 97.52809845 114.94170502 98.48564026 114.94877625 99.47219849 C114.96693129 102.60686486 114.96322259 105.74102526 114.95751953 108.87573242 C114.96208698 111.07471883 114.96739422 113.27370382 114.97340393 115.47268677 C114.98231309 120.07047339 114.97993717 124.66808612 114.9699707 129.26586914 C114.9584885 135.13195575 114.97869283 140.99743969 115.00788784 146.86344719 C115.02631318 151.40190386 115.02594468 155.94021782 115.02025032 160.47870255 C115.02009786 162.64025848 115.02607959 164.80182456 115.03854179 166.96334457 C115.12889789 185.20363816 113.04222576 198.36662136 100.21142578 212.19604492 C89.08490923 222.72649809 76.82292176 224.90364097 61.99316406 224.85009766 C60.55304437 224.85581144 59.1129292 224.86277958 57.67282104 224.87089539 C53.78836769 224.88873185 49.90414141 224.88767636 46.01965952 224.881953 C42.76449256 224.87884693 39.50936834 224.88496936 36.25420749 224.89099175 C28.56819802 224.90500448 20.88229976 224.90350321 13.19628906 224.89208984 C5.29479314 224.88061501 -2.60636311 224.89468092 -10.50781429 224.92148632 C-17.31751308 224.94371406 -24.12710581 224.95026474 -30.93683827 224.94440991 C-34.99263152 224.94105559 -39.04820719 224.94335281 -43.10396957 224.96066093 C-46.92091983 224.97624119 -50.73737089 224.97205348 -54.55430222 224.95335579 C-55.94574393 224.94970012 -57.33722356 224.95268892 -58.72863007 224.96324158 C-74.3528347 225.07258497 -85.76989854 220.7624694 -97.22607422 210.13354492 C-106.2801062 200.56702056 -109.94645594 189.29174296 -109.88012695 176.3215332 C-109.8869902 175.36399139 -109.89385345 174.40644958 -109.90092468 173.41989136 C-109.91907973 170.28522499 -109.91537103 167.15106459 -109.90966797 164.01635742 C-109.91423542 161.81737101 -109.91954266 159.61838602 -109.92555237 157.41940308 C-109.93446153 152.82161645 -109.93208561 148.22400372 -109.92211914 143.6262207 C-109.91063693 137.7601341 -109.93084127 131.89465015 -109.96003628 126.02864265 C-109.97846162 121.49018598 -109.97809312 116.95187202 -109.97239876 112.4133873 C-109.97224629 110.25183136 -109.97822802 108.09026529 -109.99069023 105.92874527 C-110.08104633 87.68845169 -107.99437419 74.52546848 -95.16357422 60.69604492 C-83.87891708 50.01592299 -71.96512368 48.02825439 -57.06201172 48.34057617 C-55.87865234 48.37538086 -54.69529297 48.41018555 -53.47607422 48.44604492 C-53.52248047 47.86338867 -53.56888672 47.28073242 -53.61669922 46.68041992 C-54.18349404 33.80608036 -48.9263159 24.09810051 -40.81982422 14.48120117 C-29.50846205 2.28947355 -15.90531749 -0.08624737 0 0 Z M-17.47607422 38.19604492 C-20.00378299 41.82011207 -20.00378299 41.82011207 -20.47607422 48.44604492 C-5.29607422 48.44604492 9.88392578 48.44604492 25.52392578 48.44604492 C24.44041394 40.73830644 24.44041394 40.73830644 19.52392578 35.44604492 C9.88352253 29.78523418 -9.43996617 29.72983531 -17.47607422 38.19604492 Z M-73.41357422 86.19604492 C-77.09271814 91.99348382 -77.77430522 97.69781879 -77.75073242 104.44165039 C-77.75584335 105.20850159 -77.76095428 105.97535278 -77.76622009 106.76544189 C-77.78003413 109.28145315 -77.77916544 111.79718792 -77.77685547 114.31323242 C-77.78074709 116.07528788 -77.78508271 117.83734242 -77.7898407 119.59939575 C-77.79728545 123.28610276 -77.79702445 126.97271397 -77.79174805 130.65942383 C-77.78595779 135.36558009 -77.80288213 140.07134224 -77.82609272 144.7774334 C-77.84088116 148.41503156 -77.84169479 152.05253594 -77.83858299 155.69015884 C-77.8390937 157.4243663 -77.84428411 159.15857936 -77.85439491 160.89275742 C-78.46115364 174.70966171 -78.46115364 174.70966171 -73.2011261 187.00778198 C-66.38939539 193.36100033 -57.76745587 192.73930799 -49.07421875 192.72070312 C-47.83919617 192.72581406 -46.60417358 192.73092499 -45.33172607 192.7361908 C-41.95966159 192.7476758 -38.58784363 192.75016571 -35.21577692 192.7476275 C-32.39293205 192.74655387 -29.57010956 192.75145119 -26.74726951 192.75623292 C-20.0831234 192.76730902 -13.41903366 192.76777637 -6.75488281 192.76171875 C0.10194171 192.75568146 6.95856091 192.76798799 13.81535041 192.78928882 C19.71878131 192.80694833 25.6221471 192.8128993 31.52560341 192.80965108 C35.04420379 192.80784482 38.56265771 192.81040815 42.08123398 192.82436562 C46.0086639 192.83936339 49.93583565 192.82993586 53.86328125 192.81835938 C55.01682098 192.82600311 56.17036072 192.83364685 57.3588562 192.84152222 C64.17383735 192.79723069 71.55333324 192.64364376 77.1070385 188.17113209 C82.24436768 182.57597594 82.82397678 175.71494535 82.79858398 168.45043945 C82.80369492 167.68358826 82.80880585 166.91673706 82.81407166 166.12664795 C82.82788569 163.61063669 82.827017 161.09490192 82.82470703 158.57885742 C82.82859865 156.81680196 82.83293428 155.05474743 82.83769226 153.29269409 C82.84513702 149.60598709 82.84487601 145.91937587 82.83959961 142.23266602 C82.83380935 137.52650975 82.85073369 132.82074761 82.87394428 128.11465645 C82.88873273 124.47705828 82.88954635 120.8395539 82.88643456 117.201931 C82.88694527 115.46772354 82.89213567 113.73351049 82.90224648 111.99933243 C83.5090052 98.18242814 83.5090052 98.18242814 78.24897766 85.88430786 C71.43724695 79.53108951 62.81530743 80.15278185 54.12207031 80.17138672 C52.88704773 80.16627579 51.65202515 80.16116486 50.37957764 80.15589905 C47.00751315 80.14441405 43.63569519 80.14192414 40.26362848 80.14446235 C37.44078361 80.14553597 34.61796113 80.14063865 31.79512107 80.13585693 C25.13097496 80.12478082 18.46688523 80.12431347 11.80273438 80.13037109 C4.94590985 80.13640838 -1.91070935 80.12410185 -8.76749885 80.10280102 C-14.67092974 80.08514152 -20.57429554 80.07919054 -26.47775185 80.08243877 C-29.99635223 80.08424503 -33.51480615 80.08168169 -37.03338242 80.06772423 C-40.96081234 80.05272646 -44.88798408 80.06215399 -48.81542969 80.07373047 C-49.96896942 80.06608673 -51.12250916 80.05844299 -52.31100464 80.05056763 C-59.81788915 80.09935593 -68.00572388 80.30625939 -73.41357422 86.19604492 Z " fill="#000000" transform="translate(245.47607421875,119.553955078125)"/>
</svg>
